<svg width="62" height="62" viewBox="0 0 62 62" fill="none" xmlns="http://www.w3.org/2000/svg">
<circle cx="31" cy="31" r="30" stroke="white" stroke-opacity="0.2"/>
<path d="M31 25.4917C28.5 25.4917 26.5078 27.5229 26.5078 29.9839C26.5078 32.4839 28.5 34.4761 31 34.4761C33.4609 34.4761 35.4922 32.4839 35.4922 29.9839C35.4922 27.5229 33.4609 25.4917 31 25.4917ZM31 32.9136C29.3984 32.9136 28.0703 31.6245 28.0703 29.9839C28.0703 28.3823 29.3594 27.0933 31 27.0933C32.6016 27.0933 33.8906 28.3823 33.8906 29.9839C33.8906 31.6245 32.6016 32.9136 31 32.9136ZM36.7031 25.3354C36.7031 24.7495 36.2344 24.2808 35.6484 24.2808C35.0625 24.2808 34.5938 24.7495 34.5938 25.3354C34.5938 25.9214 35.0625 26.3901 35.6484 26.3901C36.2344 26.3901 36.7031 25.9214 36.7031 25.3354ZM39.6719 26.3901C39.5938 24.9839 39.2812 23.7339 38.2656 22.7183C37.25 21.7026 36 21.3901 34.5938 21.312C33.1484 21.2339 28.8125 21.2339 27.3672 21.312C25.9609 21.3901 24.75 21.7026 23.6953 22.7183C22.6797 23.7339 22.3672 24.9839 22.2891 26.3901C22.2109 27.8354 22.2109 32.1714 22.2891 33.6167C22.3672 35.0229 22.6797 36.2339 23.6953 37.2886C24.75 38.3042 25.9609 38.6167 27.3672 38.6948C28.8125 38.7729 33.1484 38.7729 34.5938 38.6948C36 38.6167 37.25 38.3042 38.2656 37.2886C39.2812 36.2339 39.5938 35.0229 39.6719 33.6167C39.75 32.1714 39.75 27.8354 39.6719 26.3901ZM37.7969 35.1401C37.5234 35.9214 36.8984 36.5073 36.1562 36.8198C34.9844 37.2886 32.25 37.1714 31 37.1714C29.7109 37.1714 26.9766 37.2886 25.8438 36.8198C25.0625 36.5073 24.4766 35.9214 24.1641 35.1401C23.6953 34.0073 23.8125 31.2729 23.8125 29.9839C23.8125 28.7339 23.6953 25.9995 24.1641 24.8276C24.4766 24.0854 25.0625 23.4995 25.8438 23.187C26.9766 22.7183 29.7109 22.8354 31 22.8354C32.25 22.8354 34.9844 22.7183 36.1562 23.187C36.8984 23.4604 37.4844 24.0854 37.7969 24.8276C38.2656 25.9995 38.1484 28.7339 38.1484 29.9839C38.1484 31.2729 38.2656 34.0073 37.7969 35.1401Z" fill="white"/>
</svg>
